<svg width="40" height="40" xmlns="http://www.w3.org/2000/svg">
 <g>


  <g stroke="null" id="svg_2">
   <text stroke="#fff" stroke-width="0" stroke-opacity="null" fill-opacity="null" x="306.673064" y="204.099977" id="svg_1" font-size="24" font-family="'League Gothic', sans-serif" text-anchor="start" xml:space="preserve" transform="matrix(10.984845358572864,0,0,9.540458243345245,-3194.0406513048147,-1547.6083071802855) " font-weight="normal" font-style="normal">X</text>
   <rect stroke="#000" stroke-width="0" x="474.545628" y="498.950736" width="20.890062" height="57.576958" id="svg_2"/>
   <rect stroke="#000" stroke-width="0" stroke-opacity="null" fill-opacity="null" x="283.867779" y="398.805181" width="79.382234" height="23.990399" id="svg_3"/>
   <rect stroke="#000" stroke-width="0" x="342.35986" y="233.27165" width="20.890062" height="57.576958" id="svg_4"/>
   <rect stroke="#000" stroke-width="0" stroke-opacity="null" fill-opacity="null" x="283.867779" y="211.680332" width="79.382234" height="23.990399" id="svg_5"/>
   <rect stroke="#000" stroke-width="0" x="1.750083" y="258.699121" width="37.853426" height="102.631231" id="svg_6"/>
   <rect stroke="#000" stroke-width="0" stroke-opacity="null" fill-opacity="null" x="163.75009" y="398.805186" width="79.382234" height="23.990399" id="svg_7"/>
   <rect stroke="#000" stroke-width="0" stroke-opacity="null" fill-opacity="null" x="163.75009" y="211.680327" width="79.382234" height="23.990399" id="svg_8"/>
   <rect stroke="#000" stroke-width="0" x="163.750079" y="233.271648" width="20.890062" height="57.576958" id="svg_9"/>
  </g>


  <text stroke="#000" stroke-width="0" stroke-opacity="null" x="255.400861" y="125.766215" id="svg_11" font-size="24" font-family="'League Gothic', sans-serif" text-anchor="start" xml:space="preserve" transform="matrix(2.4446855787141284,0,0,1.9547571808118451,-624.1701588266716,-208.57546756571978) " font-weight="normal" font-style="normal">X</text>
  <g stroke="null" id="svg_21">
   <rect stroke="#000" stroke-width="0" x="36.009408" y="24.969277" width="4.240861" height="11.00353" id="svg_12"/>
   <rect stroke="#000" stroke-width="0" stroke-opacity="null" fill-opacity="null" x="24.135016" y="35.514313" width="16.115271" height="4.584804" id="svg_13"/>
   <rect stroke="#000" stroke-width="0" x="36.009408" y="3.879206" width="4.240861" height="11.00353" id="svg_14"/>
   <rect stroke="#000" stroke-width="0" stroke-opacity="null" fill-opacity="null" x="24.135016" y="-0.24711" width="16.115271" height="4.584804" id="svg_15"/>
   <rect stroke="#000" stroke-width="0" x="-0.249901" y="24.969278" width="4.240861" height="11.00353" id="svg_16"/>
   <rect stroke="#000" stroke-width="0" stroke-opacity="null" fill-opacity="null" x="-0.249899" y="35.514314" width="16.115271" height="4.584804" id="svg_17"/>
   <rect stroke="#000" stroke-width="0" stroke-opacity="null" fill-opacity="null" x="-0.249899" y="-0.247111" width="16.115271" height="4.584804" id="svg_18"/>
   <rect stroke="#000" stroke-width="0" x="-0.249901" y="3.879205" width="4.240861" height="11.00353" id="svg_19"/>
  </g>
 </g>
</svg>